<svg xmlns="http://www.w3.org/2000/svg" viewBox="0 0 512 512" style="height: 512px; width: 512px;"><path d="M0 0h512v512H0z" fill="url(#pattern)" fill-opacity="1"></path><svg><defs><linearGradient id="a" x1="240" y1="16" x2="240" y2="496" gradientUnits="userSpaceOnUse"><stop offset="0" stop-color="#7d787a"></stop><stop offset="1" stop-color="#423e44"></stop></linearGradient></defs><path fill="url(#a)" fill-rule="evenodd" d="M0 0h512v512H0z"></path><path d="M8 0l30.63 37.93 259.87-9.84 178.4 11.95L504 0H204.7l-10.2 8.779L159.4 0z" overflow="visible" fill="#fff" fill-opacity=".269" fill-rule="evenodd"></path><path d="M2.809 511.6l42.841-40.7L184 468.5l27.4 26.6 10.5-23.8 250.1 7 6.7 18.3 29.3 15.7z" overflow="visible" fill-opacity=".24" fill-rule="evenodd"></path><path d="M511.7 16.15l-39.1 50.39-2 324.26 10.1 19.9-7.3 53.5 20.9 9.1 18 23.8L512 215l-15.5-28.8 15.4-11.4z" overflow="visible" fill-opacity=".19" fill-rule="evenodd"></path><path d="M0 15.18L35.12 61.1l-8.61 93.8 10.19 13.9-5.13 97.4-14.85 18.9 12.62 23.3 7.5 83.9v57.4L-.743 496.5z" overflow="visible" fill="#fff" fill-opacity=".099" fill-rule="evenodd"></path><path d="M51.56 56.62L43.16 141l10.74 22.4-8.99 103.7-10.46 17.5 7.05 21.8 10.61 116.8 21.9 32.6 109.29.5 34.2-12.4 6.5 12.5 235.3 2.3 6.9-33.9-13.7-12.6 6.2-20.4-6-331.94-150-14.62-29.5 1.34-1.4 25.57-60.4-22.77z" overflow="visible" fill="#797677" fill-opacity=".434" fill-rule="evenodd"></path></svg><g class="" transform="translate(0,0)" style=""><path d="M112 16c-22.1 4.7-42.55 16.45-58.12 35.68l80.32 75.42L112 16zm31.9 20.77c-.9 0-1.7.1-2.6.1l26.6 132.83 88.8 40.4 10.3-75.4c-17.2-63.6-70.1-97.97-120.7-97.93h-2.4zm226.7 41.18c-24 .1-49.2 7.75-72.6 24.35l-13.7 99.9 62.3 28.3 134-53.6c-6.5-60.1-55.1-99.25-110-98.95zM55.11 89.9c-5.99 10.5-10.78 22.6-14.01 36.4-14.83 63.3 15.59 125.4 51.48 181.8l56.62-129.8-94.09-88.4zM176.9 193.6L265 407.5c27.1-13.4 57.2-27.4 85.8-43.5l-22.6-101.7-151.3-68.7zm293.9 18.2l-124.4 49.7 20.7 92.9c47.5-28.8 88.1-64.5 99.7-114 2.3-9.9 3.6-19.4 4-28.6zm-314.9 16.1l-55.5 127.2c36.3 54.6 73.7 103.2 73.7 141.5 10.9-18.8 37.8-35.2 70.9-52.2l-89.1-216.5z" fill="#f00" fill-opacity="1"></path></g></svg>